<svg width="18" height="26" viewBox="0 0 18 26" fill="none" xmlns="http://www.w3.org/2000/svg">
<path d="M17.5119 9.56791C17.1959 8.80658 16.488 8.33325 15.664 8.33325L11.8546 8.42659L14.1426 3.12524C14.4106 2.50524 14.3479 1.79724 13.9773 1.23458C13.6066 0.670578 12.9813 0.333252 12.3066 0.333252H6.33331C5.21598 0.333252 4.28932 1.03192 3.92666 2.12392L0.437316 11.0332C0.230649 11.6506 0.330641 12.3066 0.711974 12.8346C1.09331 13.3626 1.684 13.6666 2.336 13.6666L6.1013 13.5786L2.25462 24.7839C2.15462 25.0772 2.26929 25.4012 2.53196 25.5652C2.64129 25.6332 2.76265 25.6666 2.88531 25.6666C3.05731 25.6666 3.22799 25.5999 3.35732 25.4719L17.08 11.7479C17.6613 11.1653 17.8266 10.3292 17.5119 9.56791Z" fill="url(#paint0_linear_0_817)"/>
<defs>
<linearGradient id="paint0_linear_0_817" x1="0.331867" y1="20.4929" x2="7.17547" y2="20.4929" gradientUnits="userSpaceOnUse">
<stop stop-color="#0CD890"/>
<stop offset="1" stop-color="#01F0FD"/>
</linearGradient>
</defs>
</svg>
