<svg width="26" height="26" viewBox="0 0 26 26" fill="none" xmlns="http://www.w3.org/2000/svg">
<path d="M6.6107 23.4747C5.55603 24.5294 1.88401 25.4668 1.15867 25.6441C1.10534 25.6574 1.05336 25.6628 1.00002 25.6628C0.82269 25.6628 0.650697 25.5921 0.52403 25.4627C0.358697 25.2947 0.296021 25.0521 0.356021 24.8241C0.557354 24.0681 1.61203 20.2401 2.66136 19.1908C3.25203 18.6001 4.0187 18.2961 4.78937 18.3041C5.5347 18.3214 6.25069 18.6374 6.80402 19.1908C7.93202 20.3201 7.84537 22.2414 6.6107 23.4747ZM19.944 16.6388L19.6 18.7334C19.2 21.2534 17.4667 23.4001 15.0934 24.3468L11.92 25.6134C11.84 25.6534 11.7467 25.6667 11.6667 25.6667C11.52 25.6667 11.36 25.6134 11.24 25.5068C11.0533 25.3601 10.96 25.1067 11.0134 24.8667L11.8974 20.4187C11.768 20.4441 11.6454 20.4788 11.5134 20.5014C11.3507 20.5294 11.1867 20.5428 11.024 20.5428C10.2454 20.5428 9.48001 20.2267 8.90668 19.6547L6.34402 17.0907C5.65068 16.3974 5.33467 15.4241 5.49734 14.4841C5.52 14.3548 5.55468 14.2334 5.57868 14.1054L1.15867 14.9841C1.11867 14.9974 1.06537 14.9974 1.02537 14.9974C0.825373 14.9974 0.6387 14.9174 0.5187 14.7574C0.3587 14.5707 0.318677 14.3041 0.41201 14.0774L1.69204 10.8907C2.62537 8.53075 4.77202 6.79742 7.29202 6.39742L9.36001 6.05208C12.7747 2.13608 18.1373 -0.00390625 24.9973 -0.00390625C25.5493 -0.00390625 25.9973 0.444094 25.9973 0.996094C26 7.86143 23.8614 13.2241 19.944 16.6388ZM22.292 9.92676C22.0867 6.58009 19.4187 3.91341 16.072 3.70675C12.2067 5.37208 8.54804 8.60141 7.46804 14.8267C7.41737 15.1214 7.52802 15.4467 7.75869 15.6761L10.3214 18.2401C10.5507 18.4694 10.8774 18.5788 11.172 18.5294C17.3987 17.4508 20.628 13.7934 22.292 9.92676ZM15 8.00008C13.3427 8.00008 12 9.34275 12 11.0001C12 12.6574 13.3427 14.0001 15 14.0001C16.6574 14.0001 18 12.6574 18 11.0001C18 9.34275 16.6574 8.00008 15 8.00008Z" fill="url(#paint0_linear_0_751)"/>
<defs>
<linearGradient id="paint0_linear_0_751" x1="0.33371" y1="20.4241" x2="10.4641" y2="20.4241" gradientUnits="userSpaceOnUse">
<stop stop-color="#0CD890"/>
<stop offset="1" stop-color="#01F0FD"/>
</linearGradient>
</defs>
</svg>
